<svg viewBox="0 0 108.2 161.5" xmlns="http://www.w3.org/2000/svg"><clipPath id="a" transform="translate(-587.48 -183.89)"><path d="M642 191c-23 0-43 10-51 12v14c0 37 0 62 22 84 8 8 28 21 28 21s21-13 29-21c21-22 21-44 21-79v-19c-10-3-28-12-49-12z"/></clipPath><linearGradient id="b" gradientUnits="userSpaceOnUse" x1="54.1" x2="54.1" y1="18.2" y2="25.6"><stop offset="0" stop-color="#263238" stop-opacity=".3"/><stop offset=".4" stop-color="#263238" stop-opacity=".1"/><stop offset=".9" stop-color="#263238" stop-opacity="0"/><stop offset="1" stop-color="#263238" stop-opacity="0"/></linearGradient><clipPath id="c" transform="translate(-587.48 -183.89)"><path d="M641 205c-14 0-27 10-27 10l1 29c0 17 3 32 11 43l15 16s11-10 15-16c8-11 11-26 11-43l1-29s-13-10-27-10z"/></clipPath><path d="M4 20v13c0 37 0 62 21 84l29 22V7C33 7 12 17 4 20z" fill="#66bb6a"/><path d="M104 19C94 16 75 7 54 7v132s20-14 28-22c22-22 22-44 22-79z" fill="#388e3c"/><g clip-path="url(#a)"><path d="M0 20h108v9H0z" fill="url(#b)"/></g><g clip-path="url(#c)" fill="#fafafa"><circle cx="54.3" cy="121.3" r="16.3"/><path d="M54 150a28 28 0 1128-28 28 28 0 01-28 28zm0-51a22 22 0 1023 23 22 22 0 00-23-23z"/><path d="M54 161a40 40 0 1140-39 40 40 0 01-40 39zm0-73a34 34 0 1034 34 34 34 0 00-34-34z"/><circle cx="53.5" cy="55.9" r="16.5"/></g><path d="M104 19V9c0-4-5-9-10-9H13C8 0 4 5 4 9v10h100z" fill="#e0e0e0"/><g fill="#fff"><circle cx="16.2" cy="10.7" r="2.9"/><circle cx="26.9" cy="10.7" r="2.9"/></g></svg>